<svg xmlns="http://www.w3.org/2000/svg" version="1.1" xmlns:xlink="http://www.w3.org/1999/xlink" xmlns:svgjs="http://svgjs.com/svgjs" width="935.000000pt" height="935.000000pt"><svg version="1.0" xmlns="http://www.w3.org/2000/svg" width="935.000000pt" height="935.000000pt" viewBox="0 0 935.000000 935.000000" preserveAspectRatio="xMidYMid meet">

<g transform="translate(0.000000,935.000000) scale(0.100000,-0.100000)" fill="#000000" stroke="none">
<path d="M1023 9323 c-18 -7 -16 -30 8 -98 36 -104 74 -177 166 -325 49 -80
93 -152 96 -160 52 -116 196 -253 282 -267 l47 -8 -38 -25 c-23 -15 -40 -35
-42 -48 -6 -38 41 -102 166 -224 89 -88 127 -118 145 -118 18 0 42 -18 83 -60
31 -33 66 -60 76 -60 11 0 43 -22 71 -48 29 -26 87 -65 129 -86 42 -21 84 -46
93 -56 15 -16 11 -20 -67 -64 -108 -61 -447 -231 -613 -307 -435 -199 -632
-264 -980 -323 -49 -9 -115 -24 -145 -35 -51 -18 -55 -22 -58 -54 -3 -34 0
-37 85 -93 103 -68 344 -194 372 -194 10 0 35 -7 54 -15 47 -20 230 -20 312
-1 33 8 136 53 230 100 93 47 170 86 172 86 2 0 -2 -11 -9 -24 -21 -39 -137
-139 -213 -184 -105 -61 -125 -79 -125 -112 0 -21 10 -36 38 -57 53 -42 64
-45 192 -55 245 -18 317 -25 372 -38 42 -9 78 -10 141 -2 101 11 175 43 262
111 62 49 63 50 55 21 -12 -44 13 -59 82 -49 94 13 109 10 58 -13 -86 -40
-424 -408 -522 -569 -32 -53 -35 -64 -25 -86 10 -22 16 -24 49 -20 l38 5 -48
-56 c-69 -80 -82 -103 -80 -142 1 -47 -91 -278 -143 -360 -23 -36 -57 -88 -76
-117 -18 -28 -33 -58 -33 -65 0 -20 21 -38 43 -38 17 0 17 -2 -3 -38 -12 -21
-71 -92 -132 -158 -112 -122 -208 -253 -208 -284 0 -33 12 -50 34 -50 12 0 26
4 32 10 5 5 72 14 148 20 76 6 142 13 147 16 5 2 38 5 75 5 65 1 153 23 211
52 44 23 248 281 306 387 10 18 20 30 24 27 8 -9 -44 -172 -67 -210 -26 -43
-25 -63 5 -83 33 -22 134 -13 182 16 19 11 40 20 48 20 7 0 33 15 57 33 24 18
55 40 69 49 14 9 41 39 59 68 31 49 33 50 52 34 18 -17 21 -17 63 4 25 12 63
25 85 28 31 5 53 19 93 59 28 28 63 58 77 65 82 43 182 169 206 260 7 25 23
79 37 120 14 41 28 84 30 95 3 11 5 -19 6 -66 1 -114 8 -144 36 -159 20 -11
28 -10 54 6 17 11 63 39 103 63 40 24 89 58 109 75 20 17 65 54 99 81 103 82
169 146 240 230 64 77 154 203 162 226 4 13 61 -12 74 -32 4 -7 11 -129 15
-273 8 -244 7 -263 -10 -286 -30 -41 -35 -77 -36 -265 -2 -167 -4 -189 -33
-300 -18 -66 -32 -130 -32 -143 0 -12 -12 -32 -26 -45 l-26 -22 7 -187 c6
-157 5 -199 -9 -260 -25 -108 -45 -187 -61 -239 -8 -26 -15 -63 -15 -82 0 -36
-21 -67 -44 -67 -20 0 -34 -39 -41 -113 -3 -37 -10 -79 -15 -93 -6 -14 -10
-42 -10 -63 0 -21 -18 -85 -40 -144 -22 -58 -40 -110 -40 -116 0 -29 -94 -239
-115 -256 -25 -21 -39 -63 -50 -155 -11 -85 -67 -242 -140 -395 -79 -165 -88
-178 -120 -163 -30 14 -63 -4 -71 -40 -21 -94 -54 -182 -109 -292 -34 -69 -65
-135 -69 -147 -4 -11 -27 -58 -51 -104 -25 -45 -45 -88 -45 -94 0 -6 -11 -26
-24 -44 -14 -19 -28 -46 -31 -62 -7 -29 -19 -37 -30 -19 -11 17 -41 11 -62
-12 -26 -29 -104 -185 -195 -392 -39 -88 -97 -199 -128 -246 -31 -47 -67 -105
-79 -130 -33 -64 -103 -169 -188 -282 -40 -54 -73 -101 -73 -105 0 -5 -14 -23
-30 -41 -56 -62 -38 -87 95 -126 223 -65 324 -89 517 -121 221 -37 319 -39
528 -15 47 6 123 14 170 20 265 28 309 52 370 200 17 41 42 95 55 120 26 50
88 201 111 270 21 62 53 147 77 200 45 103 76 226 81 322 4 64 14 124 31 175
13 43 42 134 64 203 73 230 128 384 179 500 28 63 56 133 62 154 12 36 11 41
-9 57 l-22 18 45 133 c25 73 61 174 82 223 80 196 109 278 119 333 8 47 -5 72
-36 72 -53 0 2 255 101 465 40 85 110 287 110 318 0 10 -12 29 -26 42 -29 27
-29 15 23 275 14 69 29 143 33 165 4 22 21 109 39 193 33 166 35 181 25 260
-6 50 0 104 42 352 8 47 14 151 14 232 0 121 -3 149 -16 162 -23 23 -21 346 2
359 8 5 26 26 39 48 14 21 31 39 38 39 7 0 47 33 89 73 81 78 111 130 123 215
7 53 17 62 78 62 16 0 43 11 62 25 25 20 34 36 40 70 3 25 11 45 16 45 15 0
149 -37 213 -60 33 -11 68 -20 79 -20 11 0 69 -12 129 -27 81 -20 114 -24 126
-16 27 16 26 66 -2 120 -42 78 -30 71 40 -23 115 -154 101 -145 224 -143 81 1
113 -2 137 -15 24 -12 59 -16 134 -16 86 0 106 -3 123 -19 17 -15 44 -19 154
-24 118 -6 134 -4 139 10 6 16 -24 160 -53 252 -8 25 -13 46 -11 47 5 5 103
-129 122 -167 29 -55 107 -173 124 -186 9 -6 43 -19 76 -28 140 -39 366 -118
476 -166 26 -12 60 -19 80 -17 33 3 34 4 37 51 l3 49 59 -80 c65 -89 92 -112
131 -112 15 0 46 -7 69 -15 64 -23 191 -29 320 -16 136 14 166 26 162 62 -3
26 -3 26 111 37 62 6 125 16 140 23 40 18 35 49 -13 85 -22 16 -40 32 -40 36
0 4 -80 66 -177 139 -97 73 -201 154 -230 181 l-53 48 74 0 c98 0 126 11 126
48 0 40 -24 59 -185 142 -77 40 -190 105 -251 143 -96 62 -110 74 -106 94 6
33 -11 49 -97 93 -82 42 -183 111 -337 232 -106 83 -167 117 -273 149 -36 12
-77 25 -91 31 -44 18 -138 47 -175 54 -40 7 -57 24 -24 24 26 0 97 40 157 87
57 47 56 73 -5 135 l-47 48 34 -11 c128 -40 153 -38 224 11 31 22 61 40 66 40
11 0 236 163 273 198 39 38 33 71 -18 99 -22 12 -49 22 -59 22 -12 1 -16 4
-10 10 8 7 88 -2 205 -24 45 -9 62 0 248 123 113 75 174 125 283 230 112 110
138 140 138 163 0 31 -23 59 -49 59 -10 0 -53 -9 -97 -21 -66 -18 -124 -23
-364 -30 -362 -11 -917 -28 -1220 -39 -268 -9 -333 -20 -555 -86 -27 -8 -77
-21 -111 -29 -82 -19 -166 -51 -308 -119 -65 -31 -120 -56 -121 -56 -2 0 7 24
21 53 30 68 41 141 24 162 -10 13 -10 19 3 33 9 10 28 54 43 97 14 44 34 98
44 120 10 22 24 59 31 82 11 38 10 45 -5 62 -10 11 -30 18 -54 18 -20 0 -63 8
-94 18 -53 17 -73 18 -245 7 -104 -6 -205 -14 -226 -18 -33 -5 -42 -2 -75 28
-56 51 -266 208 -278 208 -3 0 -39 26 -81 58 -42 31 -96 72 -120 90 -57 43
-83 41 -125 -7 -62 -73 -138 -243 -138 -308 0 -42 7 -54 91 -160 50 -63 88
-117 86 -120 -3 -2 -14 0 -25 6 -12 6 -52 11 -90 11 -93 0 -102 -10 -102 -118
0 -98 -20 -282 -30 -282 -5 0 -41 34 -81 76 -79 81 -206 178 -286 218 -27 14
-57 34 -68 46 -10 11 -24 20 -31 20 -7 0 -25 10 -41 23 -44 37 -328 171 -433
205 -158 52 -474 98 -770 112 -113 5 -214 12 -225 15 -11 3 -69 12 -130 20
-146 19 -245 38 -332 64 -70 21 -356 91 -458 112 -27 6 -59 14 -70 19 -67 31
-249 94 -333 116 -55 15 -69 16 -89 7z"></path>
</g>
</svg><style>@media (prefers-color-scheme: light) { :root { filter: none; } }
@media (prefers-color-scheme: dark) { :root { filter: invert(100%); } }
</style></svg>