<?xml version="1.0" encoding="utf-8"?>
<!-- Generator: Adobe Illustrator 26.0.1, SVG Export Plug-In . SVG Version: 6.00 Build 0)  -->
<svg version="1.1" id="Layer_1" xmlns="http://www.w3.org/2000/svg" xmlns:xlink="http://www.w3.org/1999/xlink" x="0px" y="0px"
	 viewBox="0 0 1280 1280" style="enable-background:new 0 0 1280 1280;" xml:space="preserve">
<style type="text/css">
	.st0{fill:#FFFFFF;}
</style>
<g transform="translate(0.000000,1280.000000) scale(0.100000,-0.100000)">
	<path class="st0" d="M6005,12779c-1736-103-3384-933-4502-2269C-307,8349-488,5261,1057,2910c484-736,1097-1349,1833-1833
		c2123-1395,4877-1395,7000,0c736,484,1349,1097,1833,1833c1395,2123,1395,4877,0,7000c-484,736-1097,1349-1833,1833
		C8743,12496,7380,12860,6005,12779z M3267,10844c76-25,151-53,166-61c15-7,105-32,199-54c93-22,247-59,342-83
		c189-49,459-92,636-101c398-22,731-72,891-135c87-35,252-112,317-149c104-59,112-64,302-190c46-31,126-96,177-144
		c60-58,94-84,98-76c8,26,25,208,25,279c0,93,16,110,99,110c33,0,72-5,86-10c39-15,30,2-60,120c-50,64-78,111-82,134
		c-15,95,129,366,195,366c11,0,65-33,119-73s139-101,188-134c50-34,133-96,185-138c76-61,100-75,120-71c14,2,110,10,214,17
		c194,12,208,11,380-29c53-13,54-29,3-168c-26-71-58-151-72-178c-18-37-22-53-14-63c15-17,3-94-22-152c-10-24-19-47-19-52
		c0-4,56,19,124,51c151,71,220,95,441,154c271,72,211,67,1265,101c567,19,772,29,825,40c39,9,82,18,98,22c34,7,67-19,67-54
		c0-53-251-283-455-418c-166-109-167-109-273-90c-48,8-100,15-117,15c-28-1-26-3,22-26c56-27,71-51,53-84c-28-53-399-300-450-300
		c-14,0-50,7-80,15c-77,21-77,20-31-30c43-46,48-63,31-95c-13-25-120-97-168-115l-37-13l28-11c16-6,32-11,38-11
		c18,0,325-107,365-128c22-11,114-75,203-142c90-66,195-139,235-162c132-77,146-87,146-111c0-40,58-82,295-212
		c215-118,233-130,241-162c11-44-23-63-115-63l-76-1l46-42c25-23,128-106,230-184c315-243,320-256,109-283c-124-15-130-17-130-45
		c0-31-36-43-181-57c-122-12-200-6-347,26c-75,17-77,18-150,115l-57,76l-5-39c-10-75-16-75-275,21c-88,33-211,75-274,93
		c-129,39-137,46-226,195c-51,84-118,180-134,189c-5,3-1-20,9-52c9-33,25-98,35-147c23-116,32-111-155-96c-62,5-117,15-135,25
		c-21,11-56,16-116,16c-51,0-104,6-129,15c-27,9-79,15-140,15c-116,0-117,1-210,123c-35,48-66,85-67,83c-2-2,6-23,17-47
		c35-79,17-126-44-114c-128,25-238,51-341,81c-170,48-165,48-182-9c-16-54-57-87-109-87c-44,0-61-18-73-78c-6-29-20-69-30-90
		c-19-36-139-161-172-178c-9-5-34-31-55-59l-39-50l-3-142c-3-115,0-154,13-198c25-77,16-313-19-530c-20-121-25-178-20-235
		c5-67-2-113-65-430c-39-196-71-374-71-396c0-28,6-47,20-59c11-10,20-25,20-34c0-23-80-247-134-378c-53-125-96-284-96-350
		c0-37,4-45,24-53c53-20,45-66-55-321c-39-100-91-239-115-311l-45-129l23-18l22-19l-31-78c-124-316-160-416-227-625
		c-60-189-78-261-90-357c-23-186-18-167-195-617c-84-213-154-364-190-407c-44-52-110-73-302-97c-276-35-392-42-519-30
		c-199,18-484,77-700,144c-141,44-152,58-100,129c218,295,375,547,481,771c158,336,199,415,225,432c21,13,30,14,45,5
		c16-10,21-6,42,36c13,26,44,88,69,137c116,231,210,441,233,522c28,98,44,116,91,107c37-7,45,4,128,184c73,158,113,277,132,386
		c10,57,24,104,39,127c69,106,186,412,205,536c37,238,41,254,72,268c13,6,26,21,29,35c4,14,27,104,51,200l43,175l-3,209
		c-3,202-2,210,19,232c14,15,31,66,54,161c28,120,33,164,39,333c6,165,11,202,28,240c18,39,20,64,19,195c0,83-4,203-7,268
		c-6,104-9,119-28,132c-36,26-52,17-99-54c-104-157-213-271-410-430c-71-57-273-191-288-191c-4,0-17,9-30,19c-21,17-24,29-29,118
		l-5,98l-44-134c-23-74-54-153-68-175c-32-52-108-131-153-161c-19-12-61-45-92-73c-32-28-72-53-90-57s-55-16-81-28
		c-36-15-51-17-60-8c-19,19-31,12-62-35c-75-113-306-221-398-185c-41,16-43,35-9,110c33,73,65,181,53,181c-3,0-21-25-39-55
		c-47-78-194-265-251-318c-52-48-114-73-206-82c-27-3-122-12-210-21c-88-8-177-20-197-26c-29-8-41-8-53,2c-42,35,5,111,220,355
		c109,124,134,165,101,165c-21,0-38,27-31,49c3,11,29,55,57,98c87,132,177,345,193,453c3,24,24,58,60,102c30,36,55,68,55,71
		c0,2-11,2-25-1c-31-5-55,13-55,42c0,75,399,538,550,637c24,16,22,17-55,15l-80-1l-3,32l-3,31l-75-54c-113-81-261-118-376-95
		c-29,6-153,20-276,31c-203,17-227,21-267,45c-25,14-50,35-56,46c-22,42-3,65,114,143c106,70,228,179,215,191c-3,4-51-16-105-44
		c-55-27-144-68-198-92c-92-39-107-42-212-47c-180-8-300,32-558,186c-124,74-147,95-143,130c4,40,47,56,253,97
		c412,82,642,168,1235,465c303,151,380,193,380,210c0,5-21,21-47,36c-27,15-79,47-116,73c-38,25-92,61-120,79s-72,52-97,76
		s-62,51-83,60c-45,18-222,188-273,261c-43,63-41,94,6,122c36,21,38,33,8,33c-35,0-123,55-181,114c-49,48-152,209-289,450
		c-44,75-108,234-108,265C3030,10912,3079,10907,3267,10844z"/>
</g>
</svg>
