<?xml version="1.0" standalone="no"?>
<!DOCTYPE svg PUBLIC "-//W3C//DTD SVG 20010904//EN"
 "http://www.w3.org/TR/2001/REC-SVG-20010904/DTD/svg10.dtd">
<svg version="1.0" xmlns="http://www.w3.org/2000/svg"
 width="1280.000000pt" height="1280.000000pt" viewBox="0 0 1280.000000 1280.000000"
 preserveAspectRatio="xMidYMid meet">

<g transform="translate(0.000000,1280.000000) scale(0.100000,-0.100000)"
fill="#000000" stroke="none">
<path d="M6005 12779 c-1736 -103 -3384 -933 -4502 -2269 -1810 -2161 -1991
-5249 -446 -7600 484 -736 1097 -1349 1833 -1833 2123 -1395 4877 -1395 7000
0 736 484 1349 1097 1833 1833 1395 2123 1395 4877 0 7000 -484 736 -1097
1349 -1833 1833 -1147 753 -2510 1117 -3885 1036z m-2738 -1935 c76 -25 151
-53 166 -61 15 -7 105 -32 199 -54 93 -22 247 -59 342 -83 189 -49 459 -92
636 -101 398 -22 731 -72 891 -135 87 -35 252 -112 317 -149 104 -59 112 -64
302 -190 46 -31 126 -96 177 -144 60 -58 94 -84 98 -76 8 26 25 208 25 279 0
93 16 110 99 110 33 0 72 -5 86 -10 39 -15 30 2 -60 120 -50 64 -78 111 -82
134 -15 95 129 366 195 366 11 0 65 -33 119 -73 54 -40 139 -101 188 -134 50
-34 133 -96 185 -138 76 -61 100 -75 120 -71 14 2 110 10 214 17 194 12 208
11 380 -29 53 -13 54 -29 3 -168 -26 -71 -58 -151 -72 -178 -18 -37 -22 -53
-14 -63 15 -17 3 -94 -22 -152 -10 -24 -19 -47 -19 -52 0 -4 56 19 124 51 151
71 220 95 441 154 271 72 211 67 1265 101 567 19 772 29 825 40 39 9 82 18 98
22 34 7 67 -19 67 -54 0 -53 -251 -283 -455 -418 -166 -109 -167 -109 -273
-90 -48 8 -100 15 -117 15 -28 -1 -26 -3 22 -26 56 -27 71 -51 53 -84 -28 -53
-399 -300 -450 -300 -14 0 -50 7 -80 15 -77 21 -77 20 -31 -30 43 -46 48 -63
31 -95 -13 -25 -120 -97 -168 -115 l-37 -13 28 -11 c16 -6 32 -11 38 -11 18 0
325 -107 365 -128 22 -11 114 -75 203 -142 90 -66 195 -139 235 -162 132 -77
146 -87 146 -111 0 -40 58 -82 295 -212 215 -118 233 -130 241 -162 11 -44
-23 -63 -115 -63 l-76 -1 46 -42 c25 -23 128 -106 230 -184 315 -243 320 -256
109 -283 -124 -15 -130 -17 -130 -45 0 -31 -36 -43 -181 -57 -122 -12 -200 -6
-347 26 -75 17 -77 18 -150 115 l-57 76 -5 -39 c-10 -75 -16 -75 -275 21 -88
33 -211 75 -274 93 -129 39 -137 46 -226 195 -51 84 -118 180 -134 189 -5 3
-1 -20 9 -52 9 -33 25 -98 35 -147 23 -116 32 -111 -155 -96 -62 5 -117 15
-135 25 -21 11 -56 16 -116 16 -51 0 -104 6 -129 15 -27 9 -79 15 -140 15
-116 0 -117 1 -210 123 -35 48 -66 85 -67 83 -2 -2 6 -23 17 -47 35 -79 17
-126 -44 -114 -128 25 -238 51 -341 81 -170 48 -165 48 -182 -9 -16 -54 -57
-87 -109 -87 -44 0 -61 -18 -73 -78 -6 -29 -20 -69 -30 -90 -19 -36 -139 -161
-172 -178 -9 -5 -34 -31 -55 -59 l-39 -50 -3 -142 c-3 -115 0 -154 13 -198 25
-77 16 -313 -19 -530 -20 -121 -25 -178 -20 -235 5 -67 -2 -113 -65 -430 -39
-196 -71 -374 -71 -396 0 -28 6 -47 20 -59 11 -10 20 -25 20 -34 0 -23 -80
-247 -134 -378 -53 -125 -96 -284 -96 -350 0 -37 4 -45 24 -53 53 -20 45 -66
-55 -321 -39 -100 -91 -239 -115 -311 l-45 -129 23 -18 22 -19 -31 -78 c-124
-316 -160 -416 -227 -625 -60 -189 -78 -261 -90 -357 -23 -186 -18 -167 -195
-617 -84 -213 -154 -364 -190 -407 -44 -52 -110 -73 -302 -97 -276 -35 -392
-42 -519 -30 -199 18 -484 77 -700 144 -141 44 -152 58 -100 129 218 295 375
547 481 771 158 336 199 415 225 432 21 13 30 14 45 5 16 -10 21 -6 42 36 13
26 44 88 69 137 116 231 210 441 233 522 28 98 44 116 91 107 37 -7 45 4 128
184 73 158 113 277 132 386 10 57 24 104 39 127 69 106 186 412 205 536 37
238 41 254 72 268 13 6 26 21 29 35 4 14 27 104 51 200 l43 175 -3 209 c-3
202 -2 210 19 232 14 15 31 66 54 161 28 120 33 164 39 333 6 165 11 202 28
240 18 39 20 64 19 195 0 83 -4 203 -7 268 -6 104 -9 119 -28 132 -36 26 -52
17 -99 -54 -104 -157 -213 -271 -410 -430 -71 -57 -273 -191 -288 -191 -4 0
-17 9 -30 19 -21 17 -24 29 -29 118 l-5 98 -44 -134 c-23 -74 -54 -153 -68
-175 -32 -52 -108 -131 -153 -161 -19 -12 -61 -45 -92 -73 -32 -28 -72 -53
-90 -57 -18 -4 -55 -16 -81 -28 -36 -15 -51 -17 -60 -8 -19 19 -31 12 -62 -35
-75 -113 -306 -221 -398 -185 -41 16 -43 35 -9 110 33 73 65 181 53 181 -3 0
-21 -25 -39 -55 -47 -78 -194 -265 -251 -318 -52 -48 -114 -73 -206 -82 -27
-3 -122 -12 -210 -21 -88 -8 -177 -20 -197 -26 -29 -8 -41 -8 -53 2 -42 35 5
111 220 355 109 124 134 165 101 165 -21 0 -38 27 -31 49 3 11 29 55 57 98 87
132 177 345 193 453 3 24 24 58 60 102 30 36 55 68 55 71 0 2 -11 2 -25 -1
-31 -5 -55 13 -55 42 0 75 399 538 550 637 24 16 22 17 -55 15 l-80 -1 -3 32
-3 31 -75 -54 c-113 -81 -261 -118 -376 -95 -29 6 -153 20 -276 31 -203 17
-227 21 -267 45 -25 14 -50 35 -56 46 -22 42 -3 65 114 143 106 70 228 179
215 191 -3 4 -51 -16 -105 -44 -55 -27 -144 -68 -198 -92 -92 -39 -107 -42
-212 -47 -180 -8 -300 32 -558 186 -124 74 -147 95 -143 130 4 40 47 56 253
97 412 82 642 168 1235 465 303 151 380 193 380 210 0 5 -21 21 -47 36 -27 15
-79 47 -116 73 -38 25 -92 61 -120 79 -28 18 -72 52 -97 76 -25 24 -62 51 -83
60 -45 18 -222 188 -273 261 -43 63 -41 94 6 122 36 21 38 33 8 33 -35 0 -123
55 -181 114 -49 48 -152 209 -289 450 -44 75 -108 234 -108 265 0 43 49 38
237 -25z"/>
</g>
</svg>
